<?xml version="1.0" encoding="UTF-8"?>
<svg width="50px" height="40px" viewBox="0 0 50 40" version="1.1" xmlns="http://www.w3.org/2000/svg" xmlns:xlink="http://www.w3.org/1999/xlink">
    <!-- Generator: Sketch 42 (36781) - http://www.bohemiancoding.com/sketch -->
    <title>SC</title>
    <desc>Created with Sketch.</desc>
    <defs></defs>
    <g id="Symbols" stroke="none" stroke-width="1" fill="none" fill-rule="evenodd">
        <g id="Menubar" transform="translate(-300.000000, -19.000000)" fill="#E03E41">
            <g id="SC">
                <path d="M314.857374,58.5468339 C322.613797,58.5468339 328.676917,54.3408861 328.676917,46.9121991 C328.676917,38.6641716 321.521343,36.2607728 315.840583,34.3489784 C312.071616,33.0926563 308.9035,32.054825 308.9035,29.6514263 C308.9035,27.3026502 310.760672,25.9917054 313.983411,25.9917054 C317.533886,25.9917054 319.500303,27.7396318 320.538135,30.0337852 L327.147481,27.8488772 C325.727291,22.8235889 321.24823,19 314.420392,19 C306.172365,19 301.474813,23.8067975 301.474813,29.5421809 C301.474813,37.134736 307.920291,39.2650212 313.491807,41.122193 C317.643132,42.4877605 318.852091,43.6894598 318.852091,46.9121991 C318.852091,49.9710702 318.790208,51.5551285 315.075865,51.5551285 C311.361521,51.5551285 308.357273,49.097107 306.718592,45.5466316 L300,48.0592757 C302.184908,54.5593769 307.647178,58.5468339 314.857374,58.5468339 Z M336.289703,58.4375885 C343.226785,58.4375885 347.487356,54.5593769 350,48.9878616 L343.226785,46.4205948 C341.478859,49.3155978 339.403196,51.3366377 336.289703,51.3366377 C330.390451,51.3366377 328.827445,44.6180457 328.827445,38.7187943 C328.827445,33.0926563 329.898847,26.1009508 336.289703,26.1009508 C339.621687,26.1009508 341.424236,27.7396318 343.336031,30.6346348 L349.945377,27.6303864 C348.197451,23.3151932 343.609144,19 336.289703,19 C324.436577,19 318.810874,29.9791625 318.810874,38.7187943 C318.810874,48.1685211 324.327332,58.4375885 336.289703,58.4375885 Z"></path>
            </g>
        </g>
    </g>
</svg>